<?xml version="1.0" encoding="UTF-8"?>
<svg version="1.1" xmlns="http://www.w3.org/2000/svg" width="388" height="71">
<path d="M0 0 C6.15234375 -0.09765625 6.15234375 -0.09765625 8 0 C9 1 9 1 9.0625 3.5625 C9.041875 4.366875 9.02125 5.17125 9 6 C10.32 6 11.64 6 13 6 C13 8.31 13 10.62 13 13 C11.68 13 10.36 13 9 13 C9 15.97 9 18.94 9 22 C10.32 22 11.64 22 13 22 C13 24.31 13 26.62 13 29 C11.20906809 29.08086147 9.41710372 29.13912702 7.625 29.1875 C6.12839844 29.23970703 6.12839844 29.23970703 4.6015625 29.29296875 C3.74304688 29.19628906 2.88453125 29.09960938 2 29 C-0.42130331 25.36804504 -0.21022785 23.61650652 -0.125 19.3125 C-0.10695313 18.13300781 -0.08890625 16.95351563 -0.0703125 15.73828125 C-0.04710937 14.83464844 -0.02390625 13.93101563 0 13 C-3.63 13.66 -7.26 14.32 -11 15 C-11 14.34 -11 13.68 -11 13 C-12.65 13.33 -14.3 13.66 -16 14 C-16 16.31 -16 18.62 -16 21 C-13.48739777 21.83753408 -12.12354491 22.02779761 -9.5 21.4375 C-6.56378776 20.92366286 -5.47428604 21.4421162 -3 23 C-3.99550865 25.6245228 -4.93963454 26.95028727 -7.125 28.75 C-10.88610379 30.38526252 -13.95843654 30.59844652 -18 30 C-22.1888245 28.23138521 -24.02114987 26.06185027 -26 22 C-26 21.34 -26 20.68 -26 20 C-30.95 20.33 -35.9 20.66 -41 21 C-36.47050597 22.29348392 -36.47050597 22.29348392 -33.9375 21.4375 C-31.35419883 20.85417393 -30.20790796 21.65948445 -28 23 C-28.29950017 25.8951683 -28.80934832 26.83823494 -31.0625 28.75 C-36.12671969 30.9049871 -40.24632645 30.59558724 -45.3125 28.875 C-48.65188234 26.54519837 -49.67177231 24.83710223 -51 21 C-51.53121805 15.95342851 -51.0502711 13.06702813 -48 9 C-45.93532144 6.59120835 -45.11005341 6.03668447 -42 5 C-36.69414624 4.65768685 -33.26204172 4.46859401 -29 8 C-27.1875 10.6875 -27.1875 10.6875 -26 13 C-25.608125 12.236875 -25.21625 11.47375 -24.8125 10.6875 C-22.72797411 7.59665126 -21.42837269 6.44753514 -18 5 C-13.79108279 4.37677291 -10.83232982 4.58383509 -7 6.5 C-6.34 6.995 -5.68 7.49 -5 8 C-4.67 7.34 -4.34 6.68 -4 6 C-2.68 6 -1.36 6 0 6 C0 4.02 0 2.04 0 0 Z M-40 12 C-40.33 12.66 -40.66 13.32 -41 14 C-39.02 14 -37.04 14 -35 14 C-35.33 13.34 -35.66 12.68 -36 12 C-37.32 12 -38.64 12 -40 12 Z " fill="#010101" transform="translate(364,18)"/>
<path d="M0 0 C0.33 1.98 0.66 3.96 1 6 C1.763125 5.195625 2.52625 4.39125 3.3125 3.5625 C6.49676002 0.5263451 8.03160283 0.07173312 12.375 -0.25 C17.09328765 0.07539915 19.39887687 1.45605984 22.75 4.6875 C24.58044993 8.07383237 24.68117792 11.17413507 25 15 C20.05 15.33 15.1 15.66 10 16 C13.66627584 17.27314665 13.66627584 17.27314665 15.9375 16.4375 C18.77562988 15.83547245 20.43200707 16.78733667 23 18 C22.70488433 20.85278483 22.18767059 21.83578823 20 23.75 C15.89721273 25.45949469 12.3835383 25.70229223 8 25 C4.84310266 23.39285226 2.80584244 22.02561766 0.625 19.25 C-0.33315962 15.80062538 -0.11908512 12.57255374 0 9 C-2.47266765 9.34444881 -2.47266765 9.34444881 -5 10 C-6.35091528 12.70183055 -6.33858058 15.11808206 -6.5625 18.125 C-6.64628906 19.22070312 -6.73007813 20.31640625 -6.81640625 21.4453125 C-6.87699219 22.28835937 -6.93757812 23.13140625 -7 24 C-9.64 24 -12.28 24 -15 24 C-15 16.41 -15 8.82 -15 1 C-12 1 -9 1 -6 1 C-4 0 -4 0 0 0 Z M11 7 C10.67 7.66 10.34 8.32 10 9 C11.98 9 13.96 9 16 9 C15.34 8.34 14.68 7.68 14 7 C13.01 7 12.02 7 11 7 Z " fill="#010101" transform="translate(179,23)"/>
<path d="M0 0 C6.54063691 0.10284265 11.15822033 1.02603074 16.30737305 5.25097656 C19.92254924 9.87840208 19.31770493 15.66107503 18.86987305 21.25097656 C17.35239857 25.49990509 15.76085624 27.94070529 11.86987305 30.25097656 C9.0457554 31.19234911 7.34069273 31.36823039 4.4206543 31.34863281 C3.5730957 31.34541016 2.72553711 31.3421875 1.85229492 31.33886719 C0.53068359 31.32629883 0.53068359 31.32629883 -0.81762695 31.31347656 C-1.71030273 31.30896484 -2.60297852 31.30445312 -3.52270508 31.29980469 C-5.72524682 31.28802639 -7.92765294 31.2715782 -10.13012695 31.25097656 C-10.15478317 26.99683033 -10.17296594 22.74272158 -10.18505859 18.48852539 C-10.19009796 17.04027584 -10.19692948 15.59203139 -10.20556641 14.14379883 C-10.21764942 12.06623068 -10.22335907 9.98872959 -10.2277832 7.91113281 C-10.23302002 6.65953369 -10.23825684 5.40793457 -10.24365234 4.1184082 C-10.00812038 -1.83067334 -4.89873254 0.00231372 0 0 Z M-1.13012695 8.25097656 C-1.13012695 13.53097656 -1.13012695 18.81097656 -1.13012695 24.25097656 C4.29296174 24.07246196 4.29296174 24.07246196 8.86987305 21.62597656 C10.28206552 18.27201943 10.32006556 15.85251669 9.86987305 12.25097656 C8.45320638 9.66764323 8.45320638 9.66764323 5.86987305 8.25097656 C3.55987305 8.25097656 1.24987305 8.25097656 -1.13012695 8.25097656 Z " fill="#010101" transform="translate(263.130126953125,15.7490234375)"/>
<path d="M0 0 C2.97 0 5.94 0 9 0 C9 2.64 9 5.28 9 8 C9.66 7.67 10.32 7.34 11 7 C17.13636364 6.54545455 17.13636364 6.54545455 20.375 8.25 C23.0607933 11.14239279 23.12663196 14.28458085 23.09765625 18.109375 C23.09443359 18.86347656 23.09121094 19.61757813 23.08789062 20.39453125 C23.07951172 21.17183594 23.07113281 21.94914062 23.0625 22.75 C23.05798828 23.54277344 23.05347656 24.33554687 23.04882812 25.15234375 C23.03708565 27.10159508 23.01915146 29.05080738 23 31 C20.03 31 17.06 31 14 31 C13.67 26.05 13.34 21.1 13 16 C12.01 16 11.02 16 10 16 C9.67 20.95 9.34 25.9 9 31 C6.03 31 3.06 31 0 31 C0 20.77 0 10.54 0 0 Z " fill="#09B261" transform="translate(38,16)"/>
<path d="M0 0 C2.05078125 0.03255208 4.1015625 0.06510417 6.15234375 0.09765625 C6.48234375 4.05765625 6.81234375 8.01765625 7.15234375 12.09765625 C8.47234375 10.77765625 9.79234375 9.45765625 11.15234375 8.09765625 C13.73046875 7.70703125 13.73046875 7.70703125 16.40234375 7.84765625 C17.294375 7.88375 18.18640625 7.91984375 19.10546875 7.95703125 C20.11867188 8.02664062 20.11867188 8.02664062 21.15234375 8.09765625 C19.53851618 11.49977924 17.56630609 14.20090144 15.15234375 17.09765625 C16.50805472 21.16478917 18.54908318 24.18415764 21.12890625 27.546875 C22.15234375 29.09765625 22.15234375 29.09765625 22.15234375 31.09765625 C18.77163469 31.38798432 15.52317157 31.54285992 12.15234375 31.09765625 C9.65234375 28.66015625 9.65234375 28.66015625 8.15234375 26.09765625 C7.49234375 25.76765625 6.83234375 25.43765625 6.15234375 25.09765625 C6.15234375 27.07765625 6.15234375 29.05765625 6.15234375 31.09765625 C3.18234375 31.09765625 0.21234375 31.09765625 -2.84765625 31.09765625 C-2.87231247 26.84351002 -2.89049524 22.58940127 -2.90258789 18.33520508 C-2.90762726 16.88695552 -2.91445878 15.43871108 -2.9230957 13.99047852 C-2.93517872 11.91291037 -2.94088836 9.83540928 -2.9453125 7.7578125 C-2.95054932 6.50621338 -2.95578613 5.25461426 -2.96118164 3.96508789 C-2.81007887 0.14852425 -2.81007887 0.14852425 0 0 Z " fill="#09894C" transform="translate(78.84765625,15.90234375)"/>
<path d="M0 0 C0.91644287 0.00523682 1.83288574 0.01047363 2.77709961 0.01586914 C3.76645508 0.0190918 4.75581055 0.02231445 5.77514648 0.02563477 C6.81606445 0.03401367 7.85698242 0.04239258 8.92944336 0.05102539 C10.49662109 0.05779297 10.49662109 0.05779297 12.09545898 0.06469727 C14.68600996 0.07652627 17.27644895 0.0930085 19.86694336 0.11352539 C19.86694336 2.75352539 19.86694336 5.39352539 19.86694336 8.11352539 C15.24694336 8.11352539 10.62694336 8.11352539 5.86694336 8.11352539 C5.86694336 9.10352539 5.86694336 10.09352539 5.86694336 11.11352539 C10.48694336 11.11352539 15.10694336 11.11352539 19.86694336 11.11352539 C19.86694336 13.75352539 19.86694336 16.39352539 19.86694336 19.11352539 C15.24694336 19.11352539 10.62694336 19.11352539 5.86694336 19.11352539 C5.86694336 23.07352539 5.86694336 27.03352539 5.86694336 31.11352539 C2.89694336 31.11352539 -0.07305664 31.11352539 -3.13305664 31.11352539 C-3.15771286 26.85937916 -3.17589563 22.60527041 -3.18798828 18.35107422 C-3.19302765 16.90282467 -3.19985917 15.45458022 -3.20849609 14.00634766 C-3.22057911 11.92877951 -3.22628875 9.85127842 -3.23071289 7.77368164 C-3.23594971 6.52208252 -3.24118652 5.2704834 -3.24658203 3.98095703 C-3.0954933 0.16474813 -3.0954933 0.16474813 0 0 Z " fill="#010101" transform="translate(142.133056640625,15.886474609375)"/>
<path d="M0 0 C2.64 0 5.28 0 8 0 C8.33 2.64 8.66 5.28 9 8 C9.66 7.67 10.32 7.34 11 7 C13.09375 6.98046875 13.09375 6.98046875 15.5 7.1875 C16.69109375 7.27064453 16.69109375 7.27064453 17.90625 7.35546875 C20 8 20 8 21.11865234 9.75610352 C22.08119481 12.20672063 22.23074722 13.92470563 22.1953125 16.546875 C22.18886719 17.39121094 22.18242187 18.23554687 22.17578125 19.10546875 C22.15902344 19.97816406 22.14226562 20.85085937 22.125 21.75 C22.11597656 22.63816406 22.10695312 23.52632812 22.09765625 24.44140625 C22.07414577 26.62788058 22.04128499 28.81380094 22 31 C19.36 31 16.72 31 14 31 C13.93941406 30.09636719 13.87882813 29.19273438 13.81640625 28.26171875 C13.69072266 26.49248047 13.69072266 26.49248047 13.5625 24.6875 C13.48128906 23.51574219 13.40007812 22.34398437 13.31640625 21.13671875 C13.1132629 17.97409042 13.1132629 17.97409042 12 15 C11.34 15 10.68 15 10 15 C8.5192152 17.9615696 8.64685963 20.83506295 8.4375 24.125 C8.35371094 25.40632813 8.26992187 26.68765625 8.18359375 28.0078125 C8.12300781 28.99523437 8.06242188 29.98265625 8 31 C5.36 31 2.72 31 0 31 C-1.44823511 28.10352978 -1.00519634 25.68835083 -0.87890625 22.4609375 C-0.83056641 21.15898438 -0.78222656 19.85703125 -0.73242188 18.515625 C-0.67589606 17.13541196 -0.61925392 15.75520368 -0.5625 14.375 C-0.50927707 12.98699781 -0.45653668 11.59897703 -0.40429688 10.2109375 C-0.27428837 6.80707859 -0.13931117 3.40348883 0 0 Z " fill="#010101" transform="translate(229,16)"/>
<path d="M0 0 C4.54054054 2.08108108 4.54054054 2.08108108 6 5 C6.15067214 6.4465242 6.24861036 7.8987934 6.31640625 9.3515625 C6.35830078 10.20234375 6.40019531 11.053125 6.44335938 11.9296875 C6.48267578 12.81914063 6.52199219 13.70859375 6.5625 14.625 C6.60568359 15.5221875 6.64886719 16.419375 6.69335938 17.34375 C6.79956861 19.56234283 6.90161194 21.7810488 7 24 C6.38511719 23.98839844 5.77023438 23.97679688 5.13671875 23.96484375 C3.92435547 23.95130859 3.92435547 23.95130859 2.6875 23.9375 C1.88699219 23.92589844 1.08648437 23.91429688 0.26171875 23.90234375 C-2.16861334 23.90342145 -2.16861334 23.90342145 -5 25 C-9.37504473 25.48611608 -11.32600135 25.46337407 -15 22.9375 C-17 20 -17 20 -17.125 16.375 C-16 13 -16 13 -13.9375 11.125 C-10.22905094 9.70474291 -6.95551479 9.33521312 -3 9 C-3 8.34 -3 7.68 -3 7 C-3.70125 7.350625 -4.4025 7.70125 -5.125 8.0625 C-8.50268586 9.1639193 -10.58080593 8.79516141 -14 8 C-14.33 6.68 -14.66 5.36 -15 4 C-10.11976244 -0.00429748 -6.28413983 -0.98370513 0 0 Z M-8 16 C-8 16.66 -8 17.32 -8 18 C-5.52733235 17.65555119 -5.52733235 17.65555119 -3 17 C-2.67 16.34 -2.34 15.68 -2 15 C-5.7763932 14.7018576 -5.7763932 14.7018576 -8 16 Z " fill="#0A4E2E" transform="translate(117,23)"/>
<path d="M0 0 C2.5625 1.75 2.5625 1.75 3.4375 3.9375 C3.47875 4.535625 3.52 5.13375 3.5625 5.75 C1.9125 6.41 0.2625 7.07 -1.4375 7.75 C-0.4475 8.265625 0.5425 8.78125 1.5625 9.3125 C4.5625 11.75 4.5625 11.75 5.1875 15.25 C4.48238484 19.19864489 3.73856014 20.39064104 0.5625 22.75 C-4.72934237 24.51394746 -9.67061432 24.34947907 -14.9375 22.5625 C-17.4375 20.75 -17.4375 20.75 -18.3125 18.0625 C-18.35375 17.299375 -18.395 16.53625 -18.4375 15.75 C-16.7875 15.09 -15.1375 14.43 -13.4375 13.75 C-14.283125 13.04875 -15.12875 12.3475 -16 11.625 C-18.4375 8.75 -18.4375 8.75 -18.4375 5.625 C-17.44293826 2.76563499 -16.84888526 1.51216615 -14.4375 -0.25 C-9.30175957 -1.96191348 -5.00620031 -1.82043648 0 0 Z M-9.4375 5.75 C-8.7775 6.41 -8.1175 7.07 -7.4375 7.75 C-6.4475 7.42 -5.4575 7.09 -4.4375 6.75 C-6.0875 6.42 -7.7375 6.09 -9.4375 5.75 Z M-10.4375 14.75 C-10.1075 15.41 -9.7775 16.07 -9.4375 16.75 C-7.7875 16.75 -6.1375 16.75 -4.4375 16.75 C-4.7675 16.09 -5.0975 15.43 -5.4375 14.75 C-7.0875 14.75 -8.7375 14.75 -10.4375 14.75 Z " fill="#010101" transform="translate(222.4375,24.25)"/>
<path d="M0 0 C8.91 0 17.82 0 27 0 C27 2.64 27 5.28 27 8 C24.03 8 21.06 8 18 8 C18 15.59 18 23.18 18 31 C15.03 31 12.06 31 9 31 C9 23.41 9 15.82 9 8 C6.03 8 3.06 8 0 8 C-0.79953138 4.71303767 -1.09658936 3.28976808 0 0 Z " fill="#0A8B4E" transform="translate(10,16)"/>
<path d="M0 0 C0 2.97 0 5.94 0 9 C-0.804375 9.12375 -1.60875 9.2475 -2.4375 9.375 C-3.283125 9.58125 -4.12875 9.7875 -5 10 C-6.35091528 12.70183055 -6.33858058 15.11808206 -6.5625 18.125 C-6.64628906 19.22070312 -6.73007812 20.31640625 -6.81640625 21.4453125 C-6.87699219 22.28835937 -6.93757813 23.13140625 -7 24 C-9.64 24 -12.28 24 -15 24 C-15 16.41 -15 8.82 -15 1 C-12 1 -9 1 -6 1 C-4 0 -4 0 0 0 Z " fill="#010101" transform="translate(313,23)"/>
<path d="M0 0 C4.29 0 8.58 0 13 0 C13 7.59 13 15.18 13 23 C10.03 23 7.06 23 4 23 C4 17.72 4 12.44 4 7 C2.68 7 1.36 7 0 7 C0 4.69 0 2.38 0 0 Z " fill="#010000" transform="translate(283,24)"/>
<path d="M0 0 C4.29 0 8.58 0 13 0 C13 7.59 13 15.18 13 23 C10.03 23 7.06 23 4 23 C4 17.72 4 12.44 4 7 C2.68 6.67 1.36 6.34 0 6 C0 4.02 0 2.04 0 0 Z " fill="#09B663" transform="translate(61,24)"/>
<path d="M0 0 C2.97 0 5.94 0 9 0 C9 2.64 9 5.28 9 8 C9.66 7.67 10.32 7.34 11 7 C17.13636364 6.54545455 17.13636364 6.54545455 20.375 8.25 C23.0607933 11.14239279 23.12663196 14.28458085 23.09765625 18.109375 C23.09443359 18.86347656 23.09121094 19.61757813 23.08789062 20.39453125 C23.07951172 21.17183594 23.07113281 21.94914062 23.0625 22.75 C23.05798828 23.54277344 23.05347656 24.33554687 23.04882812 25.15234375 C23.03708565 27.10159508 23.01915146 29.05080738 23 31 C20.03 31 17.06 31 14 31 C13.67 26.05 13.34 21.1 13 16 C12.01 16 11.02 16 10 16 C9.67 20.95 9.34 25.9 9 31 C6.03 31 3.06 31 0 31 C0 20.77 0 10.54 0 0 Z M1 1 C1 10.57 1 20.14 1 30 C2.98 30 4.96 30 7 30 C7.09087891 28.39318359 7.09087891 28.39318359 7.18359375 26.75390625 C7.26798537 25.35675609 7.35263406 23.95962143 7.4375 22.5625 C7.49647461 21.50192383 7.49647461 21.50192383 7.55664062 20.41992188 C7.88671875 15.11328125 7.88671875 15.11328125 9 14 C10.65 14 12.3 14 14 14 C14.33 19.28 14.66 24.56 15 30 C16.98 30 18.96 30 21 30 C21.05791844 26.87507749 21.09356746 23.75029234 21.125 20.625 C21.14175781 19.73554687 21.15851562 18.84609375 21.17578125 17.9296875 C21.18222656 17.07890625 21.18867187 16.228125 21.1953125 15.3515625 C21.20578613 14.56604004 21.21625977 13.78051758 21.22705078 12.97119141 C21.17990127 10.765535 21.17990127 10.765535 19 9 C14.86002433 8.8028583 11.92296433 8.69234522 8 10 C8 7.03 8 4.06 8 1 C5.69 1 3.38 1 1 1 Z " fill="#0C3B26" transform="translate(38,16)"/>
<path d="M0 0 C2.59227518 4.86051596 2.18689553 9.65271133 2 15 C-0.95857409 15.05379226 -3.91617721 15.09357093 -6.875 15.125 C-8.13763672 15.15013672 -8.13763672 15.15013672 -9.42578125 15.17578125 C-10.23144531 15.18222656 -11.03710938 15.18867187 -11.8671875 15.1953125 C-12.61081543 15.20578613 -13.35444336 15.21625977 -14.12060547 15.22705078 C-16 15 -16 15 -18 13 C-18.125 9.875 -18.125 9.875 -18 7 C-16.35 6.67 -14.7 6.34 -13 6 C-12.34 7.65 -11.68 9.3 -11 11 C-9.02 11 -7.04 11 -5 11 C-4.74969023 8.58380177 -4.74969023 8.58380177 -5 6 C-5.99 5.34 -6.98 4.68 -8 4 C-2.25 0 -2.25 0 0 0 Z " fill="#07B865" transform="translate(120,31)"/>
<path d="M0 0 C4.54054054 2.08108108 4.54054054 2.08108108 6 5 C6.15067214 6.4465242 6.24861036 7.8987934 6.31640625 9.3515625 C6.35830078 10.20234375 6.40019531 11.053125 6.44335938 11.9296875 C6.48267578 12.81914063 6.52199219 13.70859375 6.5625 14.625 C6.60568359 15.5221875 6.64886719 16.419375 6.69335938 17.34375 C6.79956861 19.56234283 6.90161194 21.7810488 7 24 C4.36 24 1.72 24 -1 24 C-1 23.67 -1 23.34 -1 23 C0.98 23 2.96 23 5 23 C4.34 18.05 3.68 13.1 3 8 C1.35 8.66 -0.3 9.32 -2 10 C-2.33 8.68 -2.66 7.36 -3 6 C-6.3 6.33 -9.6 6.66 -13 7 C-13 4 -13 4 -11.5625 1.8125 C-7.80914729 -0.84231045 -4.46248436 -0.67613399 0 0 Z " fill="#0B7F48" transform="translate(117,23)"/>
<path d="M0 0 C4.29 0 8.58 0 13 0 C13 7.59 13 15.18 13 23 C10.03 23 7.06 23 4 23 C4 17.72 4 12.44 4 7 C2.68 6.67 1.36 6.34 0 6 C0 4.02 0 2.04 0 0 Z M2 1 C2 2.32 2 3.64 2 5 C2.99 5.33 3.98 5.66 5 6 C5.33 11.28 5.66 16.56 6 22 C7.98 22 9.96 22 12 22 C12 15.07 12 8.14 12 1 C8.7 1 5.4 1 2 1 Z " fill="#0C3C26" transform="translate(61,24)"/>
<path d="M0 0 C0.928125 0.20625 1.85625 0.4125 2.8125 0.625 C3.4375 3.4375 3.4375 3.4375 3.8125 6.625 C2.8225 8.11 2.8225 8.11 1.8125 9.625 C-1.1875 9.9375 -1.1875 9.9375 -4.1875 9.625 C-6.1875 7.625 -6.1875 7.625 -6.5 4.625 C-6.396875 3.635 -6.29375 2.645 -6.1875 1.625 C-3.1875 -0.375 -3.1875 -0.375 0 0 Z " fill="#0A6C3E" transform="translate(71.1875,12.375)"/>
<path d="M0 0 C2.4375 0.375 2.4375 0.375 4.4375 2.375 C4.6875 5.375 4.6875 5.375 4.4375 8.375 C3.7775 9.035 3.1175 9.695 2.4375 10.375 C-1.1875 10 -1.1875 10 -4.5625 9.375 C-5.48304342 6.36231243 -5.84111489 4.94770838 -4.4375 2.0625 C-2.5625 0.375 -2.5625 0.375 0 0 Z " fill="#010101" transform="translate(291.5625,11.625)"/>
<path d="M0 0 C1.26237731 2.52475462 1.09856404 4.31200466 1.0625 7.125 C1.05347656 8.03507812 1.04445313 8.94515625 1.03515625 9.8828125 C1.02355469 10.58148438 1.01195313 11.28015625 1 12 C-0.65 12.33 -2.3 12.66 -4 13 C-4.103125 11.88625 -4.20625 10.7725 -4.3125 9.625 C-4.539375 8.42875 -4.76625 7.2325 -5 6 C-5.99 5.34 -6.98 4.68 -8 4 C-2.25 0 -2.25 0 0 0 Z " fill="#05BC63" transform="translate(120,31)"/>
<path d="M0 0 C1.66611905 -0.042721 3.33382885 -0.04063832 5 0 C6 1 6 1 6.09765625 4.59765625 C6.0909822 6.08596867 6.07902183 7.57426432 6.0625 9.0625 C6.05798828 9.82111328 6.05347656 10.57972656 6.04882812 11.36132812 C6.0370068 13.24091871 6.01907078 15.12046899 6 17 C8.31 17 10.62 17 13 17 C13 11.72 13 6.44 13 1 C13.33 1 13.66 1 14 1 C14 6.61 14 12.22 14 18 C11.03 18 8.06 18 5 18 C4.67 13.05 4.34 8.1 4 3 C3.01 3 2.02 3 1 3 C0.67 2.01 0.34 1.02 0 0 Z " fill="#092418" transform="translate(47,29)"/>
<path d="M0 0 C0.042721 1.66611905 0.04063832 3.33382885 0 5 C-1 6 -1 6 -4.0625 6.0625 C-5.031875 6.041875 -6.00125 6.02125 -7 6 C-7.33 4.35 -7.66 2.7 -8 1 C-5.29120665 -0.35439668 -2.99066732 -0.06501451 0 0 Z M-7 2 C-7 2.66 -7 3.32 -7 4 C-4.52733235 3.65555119 -4.52733235 3.65555119 -2 3 C-1.67 2.34 -1.34 1.68 -1 1 C-4.7763932 0.7018576 -4.7763932 0.7018576 -7 2 Z " fill="#085230" transform="translate(116,37)"/>
<path d="M0 0 C1.70884005 1.62339805 3.37446717 3.29319053 5 5 C5 5.66 5 6.32 5 7 C1.7 7 -1.6 7 -5 7 C-5 6.67 -5 6.34 -5 6 C-3.35 5.67 -1.7 5.34 0 5 C0 3.35 0 1.7 0 0 Z " fill="#0F472E" transform="translate(96,40)"/>
<path d="M0 0 C0.33 0 0.66 0 1 0 C1 3.3 1 6.6 1 10 C-1.875 10.125 -1.875 10.125 -5 10 C-5.66 9.34 -6.32 8.68 -7 8 C-5.02 7.67 -3.04 7.34 -1 7 C-0.67 4.69 -0.34 2.38 0 0 Z " fill="#1B9E60" transform="translate(121,36)"/>
<path d="M0 0 C1.21816406 0.03480469 1.21816406 0.03480469 2.4609375 0.0703125 C3.68683594 0.09738281 3.68683594 0.09738281 4.9375 0.125 C5.87722656 0.15980469 5.87722656 0.15980469 6.8359375 0.1953125 C6.1759375 0.8553125 5.5159375 1.5153125 4.8359375 2.1953125 C5.4959375 2.8553125 6.1559375 3.5153125 6.8359375 4.1953125 C5.5159375 4.1953125 4.1959375 4.1953125 2.8359375 4.1953125 C2.5059375 3.5353125 2.1759375 2.8753125 1.8359375 2.1953125 C-0.1440625 2.1953125 -2.1240625 2.1953125 -4.1640625 2.1953125 C-2.1640625 0.1953125 -2.1640625 0.1953125 0 0 Z " fill="#117F4B" transform="translate(108.1640625,32.8046875)"/>
</svg>
